<svg width="1256" height="500" viewBox="0 0 1256 500" fill="none" xmlns="http://www.w3.org/2000/svg">
<g opacity="0.2">
<mask id="mask0_111_656" style="mask-type:luminance" maskUnits="userSpaceOnUse" x="0" y="0" width="1256" height="500">
<path d="M1034.89 281.424L1060.56 239.474L1106.48 237.009L1122.79 262.19L1034.89 281.424ZM0 199.956L236.055 263.681L249.181 290.178L216.125 320.608L234.743 368.345L283.791 365.719L292.979 388.275L90.222 446.511L139.271 377.529C139.271 377.529 204.073 378.845 204.073 374.904C204.073 370.97 192.26 339.223 192.26 339.223C192.26 339.223 184.385 328.484 188.322 320.608C192.26 312.733 204.076 307.244 194.885 303.303C185.694 299.362 177.822 307.244 165.767 307.244C153.712 307.244 115.406 295.428 115.406 295.428C115.406 295.428 112.538 276.807 102.038 275.497C91.5377 274.182 46.4267 267.622 46.4267 267.622L0 199.956ZM319.472 409.276C319.472 405.341 232.118 202.581 232.118 202.581L278.299 230.386L287.729 258.192L340.715 270.247L319.472 230.386L292.979 210.698L237.368 39.6846C237.368 39.6846 238.441 29.1843 247.868 38.372C257.298 47.5598 308.972 104.484 308.972 104.484L361.958 274.182L384.514 278.123L369.833 229.074L449.313 324.543L450.625 363.094H550.035L508.862 414.765L494.424 418.706L493.111 465.126L480.914 479.91L477.956 399.93L491.792 396.969L513.029 381.656L451.299 385.131C451.299 385.131 451.299 422.624 449.819 431.028C448.34 439.439 437.981 468.075 437.981 468.075L394.035 305.126L302.192 299.702L330.826 367.841C330.819 367.841 319.472 413.216 319.472 409.276ZM491.298 299.208L561.413 310.083C561.413 310.083 578.678 330.8 578.678 332.774C578.678 334.747 514.011 336.249 514.011 336.249L491.298 299.208ZM535.739 401.407C535.739 401.407 642.873 351.045 645.834 353.019C648.793 354.993 660.656 361.92 660.656 361.92L573.251 424.123L535.739 401.407ZM449.322 304.14L372.795 223.666L377.236 201.445L450.805 274.522L449.322 304.14ZM450.801 260.216L376.739 191.086V172.317L412.795 173.302L452.775 224.648L450.801 260.216ZM618.186 333.265C617.692 331.782 605.832 320.442 605.832 320.442L576.21 22.7129L589.059 0L640.405 32.0863L638.925 234.047C638.925 234.047 754.939 225.64 756.421 225.146C757.901 224.652 768.779 89.3784 768.779 89.3784L822.098 185.663L801.356 328.339L774.693 362.421L754.444 338.716L760.881 291.317C760.881 291.317 789.021 280.442 789.021 278.96C789.021 277.477 785.048 266.137 785.048 266.137L755.43 278.96L756.909 258.712L736.192 260.216L670.518 473.993L670.027 316.498L700.634 271.56L689.781 247.368L682.359 246.877L678.412 262.193L641.396 260.71L642.381 286.879C642.381 286.876 618.68 334.747 618.186 333.265ZM839.388 221.693L875.912 268.601L853.691 356.475L749.021 490.788L722.358 499.664L816.669 341.678L839.388 221.693ZM888.267 299.699C892.708 299.699 950.469 299.208 950.469 299.208L975.155 278.466L1050.7 85.9224L1109.44 41.4787L1125.75 42.9581L1115.88 59.7535L1113.91 75.0444L1022.06 281.912L989.483 302.655L996.883 312.053L1016.64 299.205L1071.93 296.246L1060.07 316.498L981.57 345.625L986.008 366.368L952.933 394.504L931.209 437.963L896.655 473.004L899.12 455.227L943.56 353.523L915.915 354.505L909.969 374.256L879.362 390.066L886.293 400.425L814.204 459.662L783.575 461.661L875.418 356.966C875.418 356.966 889.252 300.684 888.267 299.699ZM1042.81 345.125L1219.07 263.172L1255.59 264.16L1064.04 369.811L1042.81 345.125Z" fill="white"/>
</mask>
<g mask="url(#mask0_111_656)">
<path d="M1.75684 2.31055H1257.26V501.138H1.75684V2.31055Z" fill="#E256FF"/>
</g>
</g>
</svg>
