<svg width="340" height="288" viewBox="0 0 340 288" fill="none" xmlns="http://www.w3.org/2000/svg">
<g opacity="0.3">
<path d="M216.824 242.658L215.594 271.872H172.784V266.207C172.784 265.221 173.801 262.742 175.835 258.768C177.902 254.761 180.001 251.28 182.134 248.324C182.757 247.47 185.677 243.857 190.892 237.486C194.173 233.479 196.502 230.063 197.88 227.239C199.782 223.33 200.734 219.159 200.734 214.726C200.734 210.653 200.094 207.435 198.815 205.07C197.142 201.983 194.452 200.439 190.745 200.439C187.989 200.439 185.414 201.523 183.019 203.691C180.887 205.628 179.526 207.747 178.935 210.046C179.198 210.013 179.477 209.98 179.772 209.947C180.723 209.553 181.576 209.356 182.331 209.356C182.659 209.356 182.921 209.372 183.118 209.405C185.053 209.734 186.513 210.801 187.497 212.607C188.35 214.184 188.777 216.122 188.777 218.421C188.777 220.555 188.071 222.427 186.661 224.037C185.283 225.613 183.577 226.401 181.543 226.401C179.148 226.401 177.246 225.334 175.835 223.199C174.556 221.229 173.916 218.765 173.916 215.809C173.916 209.996 175.966 205.021 180.067 200.882C184.2 196.711 189.154 194.626 194.927 194.626C201.554 194.626 206.852 196.629 210.821 200.636C214.594 204.446 216.48 209.339 216.48 215.317C216.48 220.473 214.971 225.055 211.953 229.062C209.886 231.82 206.704 234.645 202.407 237.535C197.289 240.983 194.435 242.987 193.845 243.545C191.877 245.286 189.925 247.026 187.989 248.767C185.562 251.099 183.61 253.546 182.134 256.107L181.297 257.585H194.927C195.583 257.585 196.24 257.602 196.896 257.635C197.584 257.635 198.257 257.635 198.913 257.635C201.177 257.635 202.932 257.47 204.178 257.142C205.917 256.682 207.508 255.795 208.951 254.482C210.034 253.529 210.903 252.117 211.559 250.245C212.117 248.669 212.56 246.714 212.888 244.383L213.134 242.658H216.824Z" fill="#E256FF"/>
<path d="M270.532 245.516C270.532 252.643 268.629 258.751 264.824 263.842C260.691 269.36 255.262 272.118 248.537 272.118C242.993 272.118 238.285 270.246 234.414 266.502C230.97 263.185 228.329 258.604 226.492 252.758C224.852 247.536 224.032 241.87 224.032 235.761C224.032 228.996 225.114 222.509 227.28 216.302C229.609 209.635 232.791 204.364 236.826 200.488C241.287 196.186 246.421 194.035 252.227 194.035C256.59 194.035 260.133 195.398 262.856 198.124C265.447 200.718 266.743 203.986 266.743 207.927C266.743 210.456 266.169 212.525 265.021 214.135C263.774 215.908 262.003 216.795 259.707 216.795C257.738 216.795 256.033 216.056 254.589 214.578C253.146 213.1 252.424 211.326 252.424 209.257C252.457 208.962 252.473 208.732 252.473 208.568C252.473 204.43 254.13 201.868 257.443 200.882C258.23 200.653 258.821 200.587 259.215 200.685C258.985 200.718 258.673 200.521 258.28 200.094C257.23 198.945 255.294 198.239 252.473 197.976C252.276 197.943 251.981 197.927 251.588 197.927C248.668 197.927 246.273 199.52 244.403 202.705C242.927 205.267 241.812 208.88 241.057 213.543C240.467 217.255 240.172 221.048 240.172 224.923L240.27 228.126C242.009 226.155 243.698 224.693 245.338 223.741C247.241 222.657 249.373 222.115 251.735 222.115C257.476 222.115 262.118 224.562 265.661 229.456C268.908 233.922 270.532 239.276 270.532 245.516ZM254.737 245.811V244.087C254.737 239.916 254.425 236.55 253.802 233.988C252.752 229.686 250.882 227.534 248.192 227.534C245.863 227.534 244.075 228.799 242.829 231.328C241.32 234.382 240.565 239.423 240.565 246.452C240.565 250.524 240.68 253.71 240.91 256.009C241.271 259.72 241.91 262.561 242.829 264.532C243.944 266.995 245.502 268.226 247.503 268.226C249.603 268.226 251.243 266.831 252.424 264.039C253.375 261.806 254.031 258.735 254.392 254.827C254.622 252.331 254.737 249.325 254.737 245.811Z" fill="#E256FF"/>
<path d="M119.066 199.395H118.526C117.178 199.395 116.249 199.65 115.74 200.16C115.26 200.64 115.02 201.555 115.02 202.905V270.72H108.503L85.4899 213.885V261.585C85.4899 263.445 85.7896 264.69 86.3889 265.32C87.0181 265.92 88.2467 266.22 90.0746 266.22H93.2209V270.72H74.0733V266.22H76.006C77.8339 266.22 79.0475 265.92 79.6468 265.32C80.276 264.69 80.5907 263.445 80.5907 261.585V204.21C80.5907 202.35 80.276 201.12 79.6468 200.52C79.0475 199.89 77.8339 199.575 76.006 199.575H74.0733V194.985H93.7602L110.256 236.25V202.905C110.256 201.555 110.001 200.64 109.492 200.16C109.012 199.65 108.098 199.395 106.75 199.395H105.267V194.805H119.066V199.395Z" fill="#E256FF"/>
<path d="M165.743 199.395H165.023C163.855 199.395 163.061 199.62 162.641 200.07C162.252 200.49 162.057 201.255 162.057 202.365V253.035C162.057 259.605 160.589 264.51 157.652 267.75C154.715 270.96 150.386 272.565 144.662 272.565C138.849 272.565 134.204 270.78 130.729 267.21C127.253 263.61 125.515 258.51 125.515 251.91V202.365C125.515 201.255 125.305 200.49 124.885 200.07C124.496 199.62 123.762 199.395 122.683 199.395H121.559V194.805H145.516V199.395H142.73C141.141 199.395 140.078 199.68 139.538 200.25C139.029 200.79 138.774 201.855 138.774 203.445V251.46C138.774 256.2 139.493 259.725 140.932 262.035C142.37 264.315 144.722 265.455 147.988 265.455C150.985 265.455 153.277 264.435 154.865 262.395C156.483 260.325 157.292 257.265 157.292 253.215V203.445C157.292 201.855 157.008 200.79 156.438 200.25C155.899 199.68 154.835 199.395 153.247 199.395H150.46V194.805H165.743V199.395Z" fill="#E256FF"/>
<path d="M19.3274 104.373V108.963C18.1587 108.963 17.3797 109.188 16.9901 109.638C16.6006 110.058 16.4058 110.823 16.4058 111.933V139.383H27.2381V111.933C27.2381 110.823 27.0433 110.058 26.6538 109.638C26.2643 109.188 25.5151 108.963 24.4064 108.963L24.0469 104.373H43.7338L43.3742 108.963C42.2056 108.963 41.4265 109.188 41.037 109.638C40.6774 110.058 40.4976 110.823 40.4976 111.933V172.908C40.4976 174.078 40.6774 174.858 41.037 175.248C41.4265 175.608 42.2056 175.788 43.3742 175.788L43.7338 180.288H24.0469L24.4064 175.788C25.5151 175.788 26.2643 175.608 26.6538 175.248C27.0433 174.858 27.2381 174.078 27.2381 172.908V143.973H16.4058V172.908C16.4058 174.078 16.6006 174.858 16.9901 175.248C17.3797 175.608 18.1587 175.788 19.3274 175.788L19.5971 180.288H0V175.788C1.1087 175.788 1.91776 175.608 2.42716 175.248C2.96653 174.858 3.23621 174.078 3.23621 172.908V111.933C3.23621 110.823 3.01147 110.058 2.562 109.638C2.14249 109.188 1.37839 108.963 0.269684 108.963L0 104.373H19.3274Z" fill="#58E191"/>
<path d="M91.3097 175.788V180.288H67.3078V175.788H70.4991C71.1283 175.788 71.6228 175.638 71.9823 175.338C72.3419 175.008 72.5217 174.543 72.5217 173.943C72.5217 173.823 72.5067 173.673 72.4768 173.493C72.4468 173.313 72.4318 173.118 72.4318 172.908L69.6001 158.283H57.734L54.8574 173.943C54.8574 174.543 55.0671 175.008 55.4866 175.338C55.9361 175.638 56.5654 175.788 57.3744 175.788H59.8465V180.288H47.1264V175.788H48.4299C49.0292 175.788 49.4337 175.638 49.6435 175.338C49.8832 175.008 50.093 174.483 50.2727 173.763L63.2625 104.373H73.6454L86.815 171.378C86.9948 172.518 87.3394 173.403 87.8488 174.033C88.3881 174.633 89.2122 175.128 90.3209 175.518L91.3097 175.788ZM68.6562 153.648L63.6221 127.593L58.633 153.648H68.6562Z" fill="#58E191"/>
<path d="M135.874 127.413H131.2C130.99 121.443 130.001 116.793 128.233 113.463C126.525 110.283 124.248 108.693 121.401 108.693C117.745 108.693 115.049 111.183 113.311 116.163C111.722 120.963 110.928 128.388 110.928 138.438C110.928 151.668 111.633 161.013 113.041 166.473C114.689 172.563 117.7 175.608 122.075 175.608C124.892 175.608 127.184 173.973 128.952 170.703C130.75 167.403 131.859 162.558 132.278 156.168L136.683 156.708C136.324 165.198 134.631 171.543 131.604 175.743C128.608 179.943 124.353 182.043 118.839 182.043C111.917 182.043 106.359 178.758 102.164 172.188C97.9385 165.318 95.826 155.823 95.826 143.703C95.826 130.863 97.8487 120.783 101.894 113.463C105.879 106.353 111.318 102.798 118.21 102.798C120.277 102.798 122.225 103.158 124.053 103.878C125.911 104.568 127.619 105.648 129.177 107.118L130.076 102.708H134.661L135.874 127.413Z" fill="#58E191"/>
<path d="M164.123 108.963H162.01C160.842 108.963 160.062 109.188 159.673 109.638C159.283 110.058 159.089 110.823 159.089 111.933V137.808L172.123 113.463C172.393 112.983 172.603 112.548 172.753 112.158C172.902 111.738 172.977 111.348 172.977 110.988C172.977 110.448 172.753 109.983 172.303 109.593C171.884 109.173 171.404 108.963 170.865 108.963H167.359V104.373H184.754V108.963H184.124C182.956 108.963 181.922 109.293 181.023 109.953C180.124 110.583 179.315 111.543 178.596 112.833L168.752 130.338L181.787 172.818C182.117 173.808 182.536 174.558 183.046 175.068C183.585 175.548 184.184 175.788 184.843 175.788L185.113 180.288H166.235L166.64 175.788C167.119 175.788 167.479 175.698 167.718 175.518C167.958 175.338 168.078 175.053 168.078 174.663C168.078 174.603 168.063 174.468 168.033 174.258C168.003 174.048 167.988 173.853 167.988 173.673L160.257 145.368L159.089 147.393V172.908C159.089 174.078 159.283 174.858 159.673 175.248C160.062 175.608 160.842 175.788 162.01 175.788H164.482V180.288H141.379V175.788H143.222C144.331 175.788 145.08 175.608 145.47 175.248C145.889 174.858 146.099 174.078 146.099 172.908V111.933C146.099 110.823 145.889 110.058 145.47 109.638C145.08 109.188 144.331 108.963 143.222 108.963H141.02V104.373H164.123V108.963Z" fill="#58E191"/>
<path d="M95.018 34.9751C96.5108 33.6941 99.0689 34.7494 99.5839 36.649C104.311 54.0834 129.699 87.0196 142.313 81.9303C156.145 76.3495 159.533 69.5383 164.056 56.6149C164.128 56.4095 164.171 56.1915 164.182 55.9741L165.83 24.8392C165.83 12.6568 177.002 4.41417 202.119 4.01798C203.265 3.99991 204.2 3.05784 205.021 2.25744C207.478 -0.138312 213.985 0.555209 214.529 2.12782C214.933 3.29742 219.462 3.96433 220.674 2.28215C220.745 2.18345 220.789 2.06907 220.849 1.96307C222.029 -0.130591 230.723 -1.05483 232.463 1.77725C232.599 1.99767 232.713 2.23777 232.928 2.38165C234.455 3.4041 239.499 3.83145 240.799 2.35417C240.921 2.21517 240.975 2.0329 241.064 1.87062C242.19 -0.176742 249.562 -0.276064 250.117 2.12782C250.357 3.16913 255.319 3.16913 255.528 2.12782C255.822 0.65267 259.874 0.117588 262.214 0.744625C263.442 1.07363 264.882 2.12782 266.153 2.12782H274.862C276.136 2.12782 277.245 3.17412 277.054 4.43561C276.803 6.09629 276.008 7.24528 273.459 8.06151C272.296 8.43414 271.486 9.5356 271.6 10.7532C272.092 15.9711 271.303 19.527 265.962 21.1015C264.976 21.3923 264.162 22.22 264.279 23.2426C264.919 28.8424 271.724 31.311 285.306 29.8822C285.566 29.8548 285.912 29.8862 286.161 29.9677C288.393 30.7001 295.384 35.3005 297.548 36.2186C299.243 36.9381 300.108 38.1811 299.44 39.4241L299.695 39.4084C306.656 38.9799 310.865 38.7209 311.768 46.4336C311.909 47.6394 312.873 48.6046 314.082 48.7026C318.877 49.0916 321.212 50.5089 321.495 55.8407C321.563 57.1225 322.563 58.1587 323.814 58.4388C327.632 59.2936 328.602 62.2099 329.052 67.534C329.152 68.7227 330.119 69.6315 331.3 69.7954C334.873 70.2917 336.501 72.0571 337.032 77.651C337.089 78.2533 337.371 78.8191 337.806 79.2394C342.428 83.7085 340.219 86.3016 326.634 90.2807C325.787 90.5289 325.156 91.2379 324.98 92.1042C323.904 97.4015 322.157 100.015 313.311 99.1913C312.356 99.1022 311.427 99.5847 310.96 100.424C308.353 105.107 306.268 106.945 301.799 104.221C300.879 103.66 299.7 103.697 298.823 104.323C291.183 109.77 279.308 109.967 264.582 102.717C263.868 102.366 263.023 102.388 262.353 102.817C260.332 104.112 256.203 106.923 256.36 108.183C256.533 109.572 263.351 108.647 265.622 108.299C266.098 108.227 266.583 108.298 267.016 108.508C274.048 111.927 280.572 114.847 282.256 118.986C282.851 120.448 284.203 121.882 285.77 121.717C293.158 120.939 296.865 122.446 298.158 131.029C298.327 132.147 299.251 132.956 300.331 133.287C302.874 134.068 303.453 136.437 301.972 142.855C301.652 144.238 302.647 145.509 303.93 146.113C305.872 147.026 306.589 148.979 306.464 152.993C306.423 154.336 307.566 155.342 308.693 156.072C310.559 157.281 311.095 160.584 310.625 168.096C310.548 169.318 311.453 170.339 312.576 170.822C315.938 172.268 316.516 176.215 316.018 184.154C315.947 185.282 316.711 186.274 317.712 186.798C321.973 189.029 323.541 194.788 319.92 198.167C319.284 198.76 318.846 199.575 318.928 200.441L321.341 225.898C321.436 226.897 322.219 227.658 323.029 228.248C326.096 230.479 325.102 236.816 319.627 238.826C317.971 239.563 318.267 244.696 319.22 246.165C319.421 246.474 319.82 246.486 320.188 246.504C323.584 246.677 324.887 253.474 320.611 254.372C320.244 254.449 319.853 254.544 319.641 254.854C318.059 257.16 320.141 265.496 321.5 265.496C325.245 265.496 326.315 270.47 324.112 272.635C323.062 273.667 321.793 274.985 322.06 276.433C322.824 280.575 323.909 287.851 322.124 287.999C319.627 288.208 270.304 234.659 270.304 234.659L87.3993 44.7249C86.4804 43.7707 86.5531 42.239 87.5583 41.3764L95.018 34.9751Z" fill="#58E191"/>
</g>
</svg>
