<?xml version="1.0" encoding="UTF-8"?>
<svg version="1.1" xmlns="http://www.w3.org/2000/svg" width="1080" height="1080">
<path d="M0 0 C356.4 0 712.8 0 1080 0 C1080 356.4 1080 712.8 1080 1080 C723.6 1080 367.2 1080 0 1080 C0 723.6 0 367.2 0 0 Z " fill="#57E090" transform="translate(0,0)"/>
<path d="M0 0 C356.4 0 712.8 0 1080 0 C1080 356.4 1080 712.8 1080 1080 C723.6 1080 367.2 1080 0 1080 C0 723.6 0 367.2 0 0 Z M180.28125 164.875 C178.74816549 166.30307872 177.18452521 167.69897839 175.59375 169.0625 C138.9493805 200.60448894 119.05032479 248.86818294 115.21075463 296.29282129 C114.77016066 304.04287907 114.86314512 311.80465018 114.87301636 319.56477356 C114.87186284 321.5443443 114.87027377 323.52391482 114.86828911 325.5034849 C114.86412739 330.92017476 114.86617221 336.33684692 114.86927533 341.75353682 C114.87154213 347.60438443 114.86804341 353.45522904 114.86529541 359.30607605 C114.86085219 370.75966705 114.86180783 382.21325148 114.86470805 393.66684274 C114.86696809 402.97849976 114.86729837 412.29015516 114.86618423 421.60181236 C114.86610785 422.26425707 114.86603146 422.92670178 114.86595276 423.60922057 C114.86564141 426.2985709 114.865323 428.98792123 114.864993 431.67727156 C114.86193605 456.89068578 114.86470403 482.10409643 114.8700899 507.3175101 C114.87483362 529.69482961 114.87441202 552.07214343 114.86962891 574.44946289 C114.86426811 599.61327552 114.86215452 624.777085 114.86524117 649.94089812 C114.86556187 652.62617886 114.86587471 655.3114596 114.86618423 657.99674034 C114.86626331 658.65788322 114.86634239 659.3190261 114.86642386 660.00020362 C114.86755896 669.96239972 114.86622918 679.92459353 114.86370468 689.88678932 C114.86089529 701.22224128 114.86166893 712.55768632 114.86698543 723.89313749 C114.86960729 729.67316858 114.87065325 735.45318815 114.86733627 741.23321915 C114.86434196 746.53129411 114.86601807 751.82934694 114.87131383 757.12741991 C114.8724247 759.03714028 114.8718766 760.94686254 114.86943804 762.85658167 C114.80266967 819.52202616 134.33313669 869.34292131 174 910 C197.36535351 933.11640758 228.14104983 950.91188442 260 959 C260.76441406 959.19529297 261.52882813 959.39058594 262.31640625 959.59179688 C281.51243678 964.35074601 300.94581491 965.3055801 320.64706421 965.24723816 C322.63440301 965.24883134 324.62174127 965.25129994 326.60907805 965.25455457 C332.005455 965.26089694 337.40175557 965.25495588 342.79812741 965.24679029 C348.64268286 965.24015741 354.48723054 965.24517377 360.33178711 965.24867249 C371.75407395 965.25369169 383.17633164 965.24810201 394.59861486 965.23882218 C407.23991269 965.22892409 419.88120575 965.22845494 432.52250647 965.22892199 C457.6779278 965.22982606 482.83333401 965.21991312 507.9887501 965.20449232 C530.30711815 965.19086111 552.62547548 965.18463155 574.94384766 965.18530273 C576.3779483 965.18534315 577.81204894 965.18538351 579.24614958 965.18542381 C579.95516512 965.18544416 580.66418066 965.18546452 581.39468151 965.18548548 C584.9642541 965.18558629 588.53382669 965.18567687 592.10339928 965.18575573 C592.80772296 965.18577244 593.51204664 965.18578916 594.23771346 965.18580638 C612.9274535 965.18617196 631.61719221 965.18162864 650.30693114 965.17542917 C650.97216378 965.17520889 651.63739642 965.17498862 652.32278763 965.17476168 C655.66270613 965.17365261 659.00262463 965.17253095 662.34254312 965.17139288 C671.61565447 965.1683822 680.88876489 965.16731401 690.16187668 965.16686058 C701.4641739 965.16617716 712.76646264 965.16169439 724.06875627 965.15252777 C729.8306216 965.14792404 735.59247612 965.14485903 741.35434341 965.14612198 C746.63540701 965.14722339 751.91644679 965.14365997 757.19750543 965.13647345 C759.10089967 965.13467226 761.00429638 965.13451787 762.90769069 965.13624074 C819.55484796 965.18181192 869.35572896 945.65436759 910 906 C940.30050369 875.37318319 958.87983952 834.57613086 964 792 C964.12305503 791.11177768 964.12305503 791.11177768 964.24859601 790.20561147 C965.36187924 781.05313575 965.14194269 771.85020572 965.13371277 762.64691162 C965.13558242 760.66580609 965.13788374 758.68470093 965.14057809 756.70359635 C965.14668382 751.27310057 965.14656393 745.84262021 965.14538372 740.41212177 C965.14517939 734.54951555 965.15070164 728.68691423 965.15544128 722.8243103 C965.16374255 711.34136028 965.16649592 699.85841539 965.16705366 688.37546262 C965.16752924 679.03569038 965.16957549 669.6959195 965.17275429 660.35614777 C965.1736519 657.66409119 965.17454171 654.97203461 965.17542917 652.27997804 C965.17565021 651.61063793 965.17587126 650.94129783 965.17609901 650.25167469 C965.18225153 631.42897179 965.18619977 612.60626947 965.18575573 593.78356552 C965.18574015 593.07424184 965.18572457 592.36491816 965.18570852 591.63409983 C965.18562542 588.03928652 965.18552638 584.4444732 965.18542381 580.84965989 C965.18540387 580.13577271 965.18538392 579.42188553 965.18536337 578.68636541 C965.18532294 577.24270949 965.18528114 575.79905358 965.18523798 574.35539766 C965.18462587 551.91791487 965.19212073 529.48044721 965.20581055 507.04296875 C965.22120121 481.80768682 965.22977491 456.57241484 965.22884732 431.33712792 C965.2287727 428.64129909 965.22872399 425.94547025 965.22869301 423.24964142 C965.22868135 422.5859112 965.2286697 421.92218097 965.22865769 421.23833772 C965.22862892 411.25383408 965.23395556 401.26934366 965.24202538 391.28484344 C965.25115808 379.91257438 965.25328309 368.54033011 965.24651595 357.16805896 C965.2432642 351.37298411 965.24314502 345.57795675 965.2518692 339.78288651 C965.25979544 334.46275632 965.25824104 329.14271079 965.24958507 323.82258251 C965.2480634 321.91267722 965.24981498 320.00276542 965.25544515 318.09286782 C965.4131521 260.72823548 945.9816812 211.03658324 905.9375 169.6875 C901.22610133 165.13057342 896.16613061 161.02749981 891 157 C890.43893555 156.56252441 889.87787109 156.12504883 889.29980469 155.67431641 C880.01111676 148.49205166 870.42304605 142.39769174 860 137 C859.28924316 136.62633301 858.57848633 136.25266602 857.84619141 135.86767578 C837.1233871 125.09034686 815.15892312 118.78506761 792 116 C791.40785178 115.91796332 790.81570357 115.83592663 790.20561147 115.75140399 C781.05313575 114.63812076 771.85020572 114.85805731 762.64691162 114.86628723 C760.66580609 114.86441758 758.68470093 114.86211626 756.70359635 114.85942191 C751.27310057 114.85331618 745.84262021 114.85343607 740.41212177 114.85461628 C734.54951555 114.85482061 728.68691423 114.84929836 722.8243103 114.84455872 C711.34136028 114.83625745 699.85841539 114.83350408 688.37546262 114.83294634 C679.03569038 114.83247076 669.6959195 114.83042451 660.35614777 114.82724571 C657.66409119 114.8263481 654.97203461 114.82545829 652.27997804 114.82457083 C651.61063793 114.82434979 650.94129783 114.82412874 650.25167469 114.82390099 C631.42897179 114.81774847 612.60626947 114.81380023 593.78356552 114.81424427 C592.71958 114.81426764 592.71958 114.81426764 591.63409983 114.81429148 C588.03928652 114.81437458 584.4444732 114.81447362 580.84965989 114.81457619 C580.13577271 114.81459613 579.42188553 114.81461608 578.68636541 114.81463663 C577.24270949 114.81467706 575.79905358 114.81471886 574.35539766 114.81476202 C551.91791487 114.81537413 529.48044721 114.80787927 507.04296875 114.79418945 C481.80768682 114.77879879 456.57241484 114.77022509 431.33712792 114.77115268 C428.64129909 114.7712273 425.94547025 114.77127601 423.24964142 114.77130699 C422.5859112 114.77131865 421.92218097 114.7713303 421.23833772 114.77134231 C411.25383408 114.77137108 401.26934366 114.76604444 391.28484344 114.75797462 C379.91257438 114.74884192 368.54033011 114.74671691 357.16805896 114.75348405 C351.37298411 114.7567358 345.57795675 114.75685498 339.78288651 114.7481308 C334.46275632 114.74020456 329.14271079 114.74175896 323.82258251 114.75041493 C321.91267722 114.7519366 320.00276542 114.75018502 318.09286782 114.74455485 C266.84349606 114.60365998 218.32767001 129.36500799 180.28125 164.875 Z " fill="#191919" transform="translate(0,0)"/>
<path d="M0 0 C1.0194873 0.51385254 1.0194873 0.51385254 2.05957031 1.03808594 C17.75674635 9.09311697 31.34129884 19.78391077 44 32 C45.36705078 33.27230469 45.36705078 33.27230469 46.76171875 34.5703125 C69.25696156 56.07075855 83.98051273 85.06050513 91.6875 114.9375 C91.99143677 116.0982605 91.99143677 116.0982605 92.30151367 117.2824707 C95.4051277 129.85100693 96.39093035 142.52276353 96.375 155.4375 C96.37512085 156.12366394 96.3752417 156.80982788 96.37536621 157.51678467 C96.34283428 170.61618336 94.90700184 183.21846136 92 196 C91.76772705 197.02963867 91.76772705 197.02963867 91.53076172 198.08007812 C81.49705468 240.70388786 53.12873459 279.76949889 16.48242188 303.47363281 C-25.41079035 329.23251979 -73.57206694 337.48076514 -121.5625 326.375 C-132.58434764 323.67245936 -142.80384735 319.95631279 -153 315 C-153.80163574 314.61295898 -154.60327148 314.22591797 -155.42919922 313.82714844 C-197.01621455 293.48112198 -228.87230987 258.03243924 -244.50634766 214.37402344 C-255.25348494 182.77475833 -257.87798616 148.56842956 -250 116 C-249.82339844 115.24944336 -249.64679688 114.49888672 -249.46484375 113.72558594 C-242.17650356 83.72191884 -225.9343404 57.36546383 -205 35 C-204.11699219 34.05125 -203.23398437 33.1025 -202.32421875 32.125 C-151.15521499 -21.61610724 -65.31383033 -33.04256603 0 0 Z " fill="#57E090" transform="translate(619,459)"/>
<path d="M0 0 C1.0194873 0.51385254 1.0194873 0.51385254 2.05957031 1.03808594 C17.75674635 9.09311697 31.34129884 19.78391077 44 32 C45.36705078 33.27230469 45.36705078 33.27230469 46.76171875 34.5703125 C69.25696156 56.07075855 83.98051273 85.06050513 91.6875 114.9375 C91.99143677 116.0982605 91.99143677 116.0982605 92.30151367 117.2824707 C95.4051277 129.85100693 96.39093035 142.52276353 96.375 155.4375 C96.37512085 156.12366394 96.3752417 156.80982788 96.37536621 157.51678467 C96.34283428 170.61618336 94.90700184 183.21846136 92 196 C91.76772705 197.02963867 91.76772705 197.02963867 91.53076172 198.08007812 C81.49705468 240.70388786 53.12873459 279.76949889 16.48242188 303.47363281 C-25.41079035 329.23251979 -73.57206694 337.48076514 -121.5625 326.375 C-132.58434764 323.67245936 -142.80384735 319.95631279 -153 315 C-153.80163574 314.61295898 -154.60327148 314.22591797 -155.42919922 313.82714844 C-197.01621455 293.48112198 -228.87230987 258.03243924 -244.50634766 214.37402344 C-255.25348494 182.77475833 -257.87798616 148.56842956 -250 116 C-249.82339844 115.24944336 -249.64679688 114.49888672 -249.46484375 113.72558594 C-242.17650356 83.72191884 -225.9343404 57.36546383 -205 35 C-204.11699219 34.05125 -203.23398437 33.1025 -202.32421875 32.125 C-151.15521499 -21.61610724 -65.31383033 -33.04256603 0 0 Z M-173 61 C-173.81082031 61.73476563 -174.62164062 62.46953125 -175.45703125 63.2265625 C-182.95509256 70.2877289 -188.43608102 78.40583539 -194 87 C-194.59941406 87.89847656 -195.19882812 88.79695312 -195.81640625 89.72265625 C-210.20656274 112.22841014 -213.90648781 139.85915764 -213 166 C-212.9690625 167.13179687 -212.938125 168.26359375 -212.90625 169.4296875 C-211.25694269 199.85940736 -195.4561509 228.32206535 -175 250 C-174.26523437 250.81082031 -173.53046875 251.62164063 -172.7734375 252.45703125 C-151.11621656 275.45424747 -118.07353929 289.13620531 -86.765625 290.27734375 C-47.91209514 291.12583628 -14.33740312 278.74028701 14 252 C15.21623047 250.89785156 15.21623047 250.89785156 16.45703125 249.7734375 C40.08110587 227.52588376 52.91896524 194.22738144 54.37890625 162.2734375 C55.39930842 124.01921135 42.18585515 90.74985674 16 63 C14.89785156 61.78376953 14.89785156 61.78376953 13.7734375 60.54296875 C-8.47411624 36.91889413 -41.77261856 24.08103476 -73.7265625 22.62109375 C-111.98078865 21.60069158 -145.25014326 34.81414485 -173 61 Z " fill="#191A19" transform="translate(619,459)"/>
<path d="M0 0 C0.66 0 1.32 0 2 0 C2.37704267 10.09928755 1.39785302 19.23854472 -0.6875 29.125 C-0.83561127 29.84821442 -0.98372253 30.57142883 -1.13632202 31.31655884 C-5.27559045 51.48864225 -10.46184456 71.42710363 -15.55125427 91.37539673 C-17.35353623 98.44108589 -19.13197191 105.5122035 -20.88671875 112.58984375 C-21.22356438 113.94691689 -21.22356438 113.94691689 -21.56721497 115.33140564 C-22.41006157 118.72783631 -23.25272903 122.12430757 -24.0921936 125.52157593 C-26.31269066 134.49922326 -28.64453713 143.43312711 -31.14285278 152.33763123 C-33.31739774 160.09610111 -35.36710711 167.88441395 -37.375 175.6875 C-37.56565033 176.426586 -37.75630066 177.165672 -37.95272827 177.92715454 C-41.08881032 190.11385793 -43.97048278 202.34484504 -46.68481445 214.63183594 C-48.04103502 220.76770778 -49.4450871 226.8655729 -51.0625 232.9375 C-52.35655878 238.16580856 -53.50367888 243.3853863 -54.50390625 248.6796875 C-54.6359848 249.37704514 -54.76806335 250.07440277 -54.90414429 250.79289246 C-56.07303402 256.98473722 -57.21335429 263.18183966 -58.34082031 269.38134766 C-58.75174355 271.63716405 -59.16700196 273.89220036 -59.58886719 276.14599609 C-64.13280724 300.30992251 -64.13280724 300.30992251 -57 323 C-51.14531759 329.97470861 -43.51886607 333.4329848 -34.7109375 335.10546875 C-33.3813501 335.36106567 -33.3813501 335.36106567 -32.02490234 335.62182617 C-31.35668457 335.74662354 -30.6884668 335.8714209 -30 336 C-29.90295776 337.18251343 -29.90295776 337.18251343 -29.80395508 338.38891602 C-27.05563266 370.90404728 -21.05412647 402.13955231 -5 431 C-4.35754879 432.19503088 -3.71562191 433.39034378 -3.07421875 434.5859375 C1.63185145 443.21610248 7.10206647 451.15291687 13 459 C13.42651855 459.57218262 13.85303711 460.14436523 14.29248047 460.73388672 C20.26587729 468.70366155 26.69355986 476.0951332 33.58105469 483.29077148 C38 487.91085927 38 487.91085927 38 489 C8.89520565 489.52385406 -19.41149563 488.00819414 -48 482 C-48.74459473 481.84950195 -49.48918945 481.69900391 -50.25634766 481.54394531 C-81.98268673 475.0744285 -115.71896473 460.79400338 -134.27734375 432.890625 C-157.78920971 393.43760729 -153.08562196 348.96797289 -142.25048828 306.02978516 C-131.33779797 263.79705711 -114.08185238 223.5793669 -96 184 C-95.6961438 183.33276917 -95.3922876 182.66553833 -95.07922363 181.97808838 C-86.02491757 162.10222495 -76.36305567 142.52671405 -66.61457825 122.98417664 C-65.70284438 121.15577185 -64.79230221 119.32677767 -63.88195801 117.49768066 C-57.73394268 105.1597115 -51.50026414 92.90276092 -44.78268433 80.86410522 C-41.65194045 75.24061572 -38.71202237 69.54838374 -35.86672974 63.77603149 C-32.28836976 56.52191239 -28.49580532 49.3854176 -24.6875 42.25 C-24.13781555 41.2188205 -24.13781555 41.2188205 -23.57702637 40.16680908 C-21.38741767 36.06025321 -19.1926381 31.95649822 -16.99383545 27.8548584 C-16.07150944 26.13346262 -15.15115031 24.41101337 -14.23095703 22.68847656 C-12.74535331 19.91287436 -11.25020374 17.14273148 -9.75 14.375 C-9.33322998 13.59543945 -8.91645996 12.81587891 -8.48706055 12.01269531 C-6.05336385 7.56165126 -3.48348979 3.70559149 0 0 Z " fill="#191919" transform="translate(341,290)"/>
<path d="M0 0 C3.93133073 1.49683052 5.30518484 3.56322634 7.4375 7.125 C7.7660498 7.67341553 8.09459961 8.22183105 8.43310547 8.78686523 C15.40824826 20.61325903 21.93383714 32.77450407 28.03125 45.07421875 C30.83233293 50.7181302 33.8232042 56.23864502 36.875 61.75 C40.67844977 68.67061982 44.38892326 75.61281601 47.86576843 82.70303345 C50.63206494 88.32520735 53.53543998 93.87115476 56.44921875 99.41796875 C63.03532877 112.00456482 69.45645039 124.67088282 75.8125 137.375 C76.37859985 138.50619263 76.94469971 139.63738525 77.5279541 140.80285645 C86.18217063 158.12164216 94.56128429 175.51932783 102.34521484 193.24609375 C103.75453479 196.45291199 105.18891832 199.64787004 106.63011169 202.84046936 C121.8776364 236.64744572 135.38122997 271.38272762 144.34765625 307.40673828 C144.93050728 309.72374564 145.53620732 312.03256956 146.15625 314.33984375 C148.84484531 324.4518392 150.60217005 334.63638349 152 345 C152.14574463 346.02915527 152.14574463 346.02915527 152.29443359 347.07910156 C156.16103562 377.22054858 152.80309135 409.59722229 135 435 C131.34482747 439.66925243 127.24802805 443.87330191 123 448 C122.23816406 448.75925781 121.47632813 449.51851562 120.69140625 450.30078125 C105.72586528 464.44253098 85.3848754 472.12787249 66 478 C64.87335938 478.35707031 63.74671875 478.71414063 62.5859375 479.08203125 C30.51019551 488.50944488 -2.86679885 489.36720513 -36 489 C-32.56822101 484.94935178 -29.07985416 480.98906267 -25.4375 477.125 C-10.21463833 460.3730053 2.62978174 441.35944755 12.15478516 420.81738281 C12.94113936 419.12656227 13.75655607 417.44934166 14.57421875 415.7734375 C26.06505222 390.98219049 30.17529663 363.01080219 32 336 C32.97839844 335.78085937 33.95679688 335.56171875 34.96484375 335.3359375 C44.84384559 332.99700343 54.32911868 330.16065444 60 321 C63.06837092 314.07186836 64.20086604 307.89755497 64.25 300.3125 C64.270625 299.56677734 64.29125 298.82105469 64.3125 298.05273438 C64.3684125 289.54704524 62.59546214 281.31467764 61 273 C60.73051241 271.56060947 60.46178551 270.1210763 60.19384766 268.68139648 C56.57864685 249.34550817 52.61880918 230.12335582 48 211 C47.64761989 209.5285619 47.29558952 208.05704002 46.94384766 206.58544922 C45.97458192 202.53182456 45.00057202 198.4793652 44.02313232 194.42770386 C43.64148538 192.8456092 43.26047254 191.26336141 42.88018799 189.68093872 C40.71887232 180.70390043 38.41428239 171.78657395 35.90820312 162.89958191 C33.39046436 153.91959446 31.17144438 144.86639809 28.9375 135.8125 C26.0606121 124.1783345 23.11757445 112.57235565 20 101 C15.15980252 82.85242787 10.57441002 64.67692662 6.625 46.3125 C6.46205444 45.55652527 6.29910889 44.80055054 6.13122559 44.02166748 C5.0574758 39.02044087 4.01505249 34.01346022 3 29 C2.8535202 28.27963562 2.70704041 27.55927124 2.55612183 26.81707764 C2.1244046 24.67512702 1.70294504 22.53142547 1.28515625 20.38671875 C1.041604 19.14494873 0.79805176 17.90317871 0.54711914 16.6237793 C-0.2920974 11.06532723 -0.25958076 5.61463574 0 0 Z " fill="#191919" transform="translate(737,290)"/>
<path d="M0 0 C0.87011719 0.00902344 1.74023438 0.01804687 2.63671875 0.02734375 C4.7579342 0.05065381 6.87900562 0.08651421 9 0.125 C8.566875 0.89199219 8.13375 1.65898438 7.6875 2.44921875 C2.19539787 13.39528341 0.29830026 25.49982355 3.66650391 37.49951172 C8.17411785 49.82246582 15.99633349 57.67090219 27.8359375 63.21484375 C36.83738161 67.00064967 49.65817458 67.10099638 58.734375 63.515625 C65.19245267 60.50321466 70.63762458 56.79968147 76 52.125 C81.96672572 69.59898246 80.44906248 89.67455098 72.4375 106.1875 C62.95390575 124.64422123 48.43934494 138.96329058 28.45922852 145.40942383 C25.31891739 146.36476697 22.1643531 147.2524624 19 148.125 C18.01 148.455 17.02 148.785 16 149.125 C-6.73001461 151.1487475 -27.03602884 146.57240447 -44.8125 131.8125 C-59.59233462 118.95430563 -69.36975054 101.3019319 -71.23486328 81.65039062 C-72.62913015 60.94222645 -67.16706365 42.34533138 -53.7890625 26.16796875 C-52.90347656 25.15669922 -52.90347656 25.15669922 -52 24.125 C-51.43023437 23.46113281 -50.86046875 22.79726563 -50.2734375 22.11328125 C-37.52153613 8.30324338 -18.7399459 -0.37422319 0 0 Z " fill="#191919" transform="translate(536,540.875)"/>
</svg>
